<?xml version="1.0" standalone="no"?><!DOCTYPE svg PUBLIC "-//W3C//DTD SVG 1.1//EN" "http://www.w3.org/Graphics/SVG/1.1/DTD/svg11.dtd"><svg t="1748859596706" class="icon" viewBox="0 0 1024 1024" version="1.1" xmlns="http://www.w3.org/2000/svg" p-id="1067" xmlns:xlink="http://www.w3.org/1999/xlink" width="200" height="200"><path d="M24.576 778.24l49.152 126.976c8.192 16.384 20.48 24.576 36.864 24.576h802.816c16.384 0 32.768-12.288 36.864-24.576l49.152-126.976c4.096-12.288 4.096-28.672-4.096-36.864-8.192-12.288-20.48-16.384-32.768-16.384h-16.384V212.992c0-65.536-53.248-122.88-122.88-122.88H200.704c-65.536 0-122.88 53.248-122.88 122.88v507.904h-16.384c-12.288 0-24.576 8.192-32.768 16.384-8.192 12.288-12.288 28.672-4.096 40.96zM159.744 212.992c0-8.192 4.096-20.48 12.288-28.672 8.192-8.192 20.48-12.288 28.672-12.288h622.592c12.288 0 20.48 4.096 28.672 12.288 8.192 12.288 12.288 20.48 12.288 32.768v417.792H159.744V212.992z" fill="#FFA500" p-id="1068"></path><path d="M475.136 294.912c-8.192-16.384-20.48-24.576-36.864-24.576s-28.672 8.192-36.864 24.576c-12.288 24.576-77.824 167.936-86.016 188.416-8.192 20.48 0 45.056 20.48 53.248 20.48 8.192 45.056 0 53.248-20.48l28.672-61.44h40.96l28.672 61.44c8.192 20.48 32.768 28.672 53.248 20.48 20.48-8.192 28.672-32.768 20.48-53.248l-86.016-188.416zM671.744 278.528c-24.576 0-40.96 16.384-40.96 40.96v167.936c0 24.576 16.384 40.96 40.96 40.96s40.96-16.384 40.96-40.96V319.488c0-20.48-16.384-40.96-40.96-40.96z" fill="#FFA500" p-id="1069"></path></svg>