<?xml version="1.0" standalone="no"?><!DOCTYPE svg PUBLIC "-//W3C//DTD SVG 1.1//EN" "http://www.w3.org/Graphics/SVG/1.1/DTD/svg11.dtd"><svg t="1749145613387" class="icon" viewBox="0 0 1024 1024" version="1.1" xmlns="http://www.w3.org/2000/svg" p-id="1706" xmlns:xlink="http://www.w3.org/1999/xlink" width="200" height="200"><path d="M876.544 323.584v-12.288c0-98.304-77.824-176.128-176.128-176.128-24.576 0-53.248 4.096-73.728 16.384C589.824 65.536 499.712 4.096 401.408 4.096c-135.168 0-245.76 110.592-245.76 245.76 0 20.48 4.096 40.96 8.192 61.44C81.92 331.776 20.48 405.504 20.48 491.52c0 98.304 77.824 176.128 176.128 176.128H204.8V573.44c0-81.92 65.536-147.456 147.456-147.456h315.392c81.92 0 147.456 65.536 147.456 147.456v94.208h8.192c94.208 0 176.128-77.824 176.128-176.128 4.096-81.92-49.152-147.456-122.88-167.936z" fill="#D79921" p-id="1707"></path><path d="M671.744 1015.808c36.864 0 65.536-28.672 65.536-65.536V573.44c0-36.864-28.672-65.536-65.536-65.536H356.352c-36.864-4.096-69.632 24.576-69.632 61.44v376.832c0 36.864 28.672 65.536 65.536 65.536h319.488z m-237.568-380.928h159.744c24.576 0 40.96 16.384 40.96 40.96 0 20.48-16.384 40.96-40.96 40.96h-159.744c-20.48 0-40.96-20.48-40.96-40.96s16.384-40.96 40.96-40.96z m0 163.84h159.744c24.576 0 40.96 16.384 40.96 40.96 0 20.48-16.384 40.96-40.96 40.96h-159.744c-20.48 0-40.96-20.48-40.96-40.96s16.384-40.96 40.96-40.96z" fill="#D79921" p-id="1708"></path></svg>