<?xml version="1.0" standalone="no"?><!DOCTYPE svg PUBLIC "-//W3C//DTD SVG 1.1//EN" "http://www.w3.org/Graphics/SVG/1.1/DTD/svg11.dtd"><svg t="1749146573604" class="icon" viewBox="0 0 1024 1024" version="1.1" xmlns="http://www.w3.org/2000/svg" p-id="1084" xmlns:xlink="http://www.w3.org/1999/xlink" width="200" height="200"><path d="M832.170667 270.336H487.082667l-36.181334-59.392a88.644267 88.644267 0 0 0-76.117333-43.349333H191.488A89.429333 89.429333 0 0 0 102.4 257.024v509.952a89.429333 89.429333 0 0 0 89.088 89.429333h640.682667c49.493333 0 89.429333-40.277333 89.429333-89.429333V359.424c0-49.493333-39.936-89.088-89.429333-89.088zM662.186667 693.248h-300.032a69.154133 69.154133 0 1 1-17.408-136.192c-12.970667-60.552533 39.7312-135.168 118.442666-135.168 40.96 0 76.8 20.48 98.645334 51.541333 8.874667-3.072 18.090667-4.437333 27.989333-4.437333 49.493333 0 89.770667 39.253333 90.794667 88.405333a69.12 69.12 0 0 1-18.432 135.850667z" fill="#D79921" p-id="1085"></path></svg>