<?xml version="1.0" standalone="no"?><!DOCTYPE svg PUBLIC "-//W3C//DTD SVG 1.1//EN" "http://www.w3.org/Graphics/SVG/1.1/DTD/svg11.dtd"><svg t="1749145593718" class="icon" viewBox="0 0 1024 1024" version="1.1" xmlns="http://www.w3.org/2000/svg" p-id="1238" xmlns:xlink="http://www.w3.org/1999/xlink" width="200" height="200"><path d="M481.621333 736.938667h61.098667c2.048 0 3.413333-1.706667 3.413333-3.754667v-157.696c0-2.048-1.365333-3.754667-3.413333-3.754667h-61.098667c-2.048 0-3.754667 1.706667-3.754666 3.754667v157.696c0 2.048 1.706667 3.754667 3.754666 3.754667z" fill="#D79921" p-id="1239"></path><path d="M102.4 802.133333C102.4 868.010667 155.989333 921.6 221.866667 921.6h580.266666c65.877333 0 119.466667-53.589333 119.466667-119.466667V389.802667H102.4V802.133333z m589.482667-251.562666c0-19.114667 15.36-34.133333 34.133333-34.133334 19.114667 0 34.133333 15.018667 34.133333 34.133334v207.530666c0 18.773333-15.018667 34.133333-34.133333 34.133334-18.773333 0-34.133333-15.36-34.133333-34.133334v-207.530666z m-282.282667 24.917333c0-39.594667 32.426667-72.021333 72.021333-72.021333h61.098667c39.594667 0 71.68 32.426667 71.68 72.021333v157.696c0 39.594667-32.085333 72.021333-71.68 72.021333h-61.098667c-39.594667 0-72.021333-32.426667-72.021333-72.021333v-157.696z m-145.749333-24.917333c0-19.114667 15.36-34.133333 34.133333-34.133334s34.133333 15.018667 34.133333 34.133334v207.530666c0 18.773333-15.36 34.133333-34.133333 34.133334s-34.133333-15.36-34.133333-34.133334v-207.530666zM802.133333 102.4h-580.266666C155.989333 102.4 102.4 155.989333 102.4 221.866667v99.669333h819.2V221.866667C921.6 155.989333 868.010667 102.4 802.133333 102.4zM228.693333 234.837333a33.450667 33.450667 0 0 1-48.128 0 34.0992 34.0992 0 0 1 0-48.128c14.574933-14.574933 38.775467-11.707733 48.128 0 12.8 11.537067 14.336 34.5088 0 48.128z m136.533334 0a33.450667 33.450667 0 0 1-48.128 0 34.0992 34.0992 0 0 1 0-48.128c14.404267-14.404267 38.673067-11.810133 48.128 0 12.151467 10.922667 14.882133 34.030933 0 48.128z m136.533333 0a33.450667 33.450667 0 0 1-48.128 0 34.0992 34.0992 0 0 1 0-48.128c15.872-15.872 40.106667-10.069333 48.128 0 12.8 11.537067 14.336 34.5088 0 48.128z" fill="#D79921" p-id="1240"></path></svg>