<?xml version="1.0" standalone="no"?><!DOCTYPE svg PUBLIC "-//W3C//DTD SVG 1.1//EN" "http://www.w3.org/Graphics/SVG/1.1/DTD/svg11.dtd"><svg t="1749145609710" class="icon" viewBox="0 0 1024 1024" version="1.1" xmlns="http://www.w3.org/2000/svg" p-id="1550" xmlns:xlink="http://www.w3.org/1999/xlink" width="200" height="200"><path d="M817.220267 207.530667a97.8944 97.8944 0 0 0-95.232-74.069334h-419.84c-45.056 0-84.309333 30.378667-95.232 74.752-115.234133 473.770667-104.448 430.592-104.448 439.637334v154.282666a88.405333 88.405333 0 0 0 88.405333 88.405334h642.389333a88.405333 88.405333 0 0 0 88.405334-88.405334v-154.282666c0-11.3664 7.509333 20.650667-104.448-440.32z m-411.648 140.629333c-8.738133-43.793067 28.603733-94.208 82.602666-94.208 28.672 0 53.589333 13.994667 68.949334 35.84a63.419733 63.419733 0 0 1 82.944 58.368c20.48 5.802667 35.157333 24.576 35.157333 46.762667 0 26.624-21.504 48.469333-48.128 48.469333h-209.237333c-26.624 0-48.469333-21.845333-48.469334-48.469333 0-23.210667 16.622933-42.052267 36.181334-46.762667z m447.829333 453.973333c0 10.922667-8.874667 20.138667-20.138667 20.138667H190.8736c-11.264 0-20.138667-9.216-20.138667-20.138667v-154.282666c0-11.400533 9.454933-20.138667 20.138667-20.138667h642.389333c10.478933 0 20.138667 8.123733 20.138667 20.138667v154.282666z" fill="#D79921" p-id="1551"></path><path d="M750.967467 682.120533a42.9056 42.9056 0 0 0 0 85.742934 43.008 43.008 0 0 0 42.871466-42.871467 43.008 43.008 0 0 0-42.871466-42.871467z" fill="#D79921" p-id="1552"></path></svg>