<?xml version="1.0" standalone="no"?><!DOCTYPE svg PUBLIC "-//W3C//DTD SVG 1.1//EN" "http://www.w3.org/Graphics/SVG/1.1/DTD/svg11.dtd"><svg t="1748859508244" class="icon" viewBox="0 0 1024 1024" version="1.1" xmlns="http://www.w3.org/2000/svg" p-id="1062" xmlns:xlink="http://www.w3.org/1999/xlink" width="200" height="200"><path d="M779.946667 102.4H244.053333C190.122667 102.4 146.090667 146.432 146.090667 200.362667v623.274666c0 53.930667 44.032 97.962667 97.962666 97.962667h535.893334c53.930667 0 97.962667-44.032 97.962666-97.962667V200.362667c0-53.930667-44.032-97.962667-97.962666-97.962667zM512 197.632a194.389333 194.389333 0 0 1 0 388.778667 194.389333 194.389333 0 0 1 0-388.778667z m297.642667 626.005333c0 16.384-13.312 29.696-29.696 29.696H244.053333a29.696 29.696 0 0 1-29.696-29.696v-104.448c0-15.291733 12.356267-29.696 29.696-29.696h535.893334a29.696 29.696 0 0 1 29.696 29.696V823.637333z" fill="#FFA500" p-id="1063"></path><path d="M726.9376 742.6048h-41.233067a34.133333 34.133333 0 1 0 0 68.266667h41.233067a34.133333 34.133333 0 1 0 0-68.266667zM512 444.416c29.013333 0 52.224-23.552 52.224-52.565333a52.224 52.224 0 1 0-104.448 0c0 29.013333 23.210667 52.565333 52.224 52.565333z" fill="#FFA500" p-id="1064"></path></svg>